<svg version="1.1" xmlns="http://www.w3.org/2000/svg" viewBox="-424.5018025115173 -571.1718767736417 849.0036050230347 1253.7428401366321" fill="none" stroke="black" stroke-width="0.6%" vector-effect="non-scaling-stroke">
    <path d="M -423.5018 12.01542 L -361.50497 -484.55199 A 100 68.09573 168.14485 0 1 -254.33942 -558.93634 L -27.83661 -570.00561 A 100 68.09573 168.14485 0 1 61.34433 -520.97782 L 64.05238 -508.07717 A 100 68.09573 168.14485 0 1 64.66486 -492.34607 L 58.09294 -439.70793" />
    <path d="M 1.38232 29.38172 L -21.74893 -6.94527 L -17.23552 43.38159 L 1.38232 72.62039 L 346.06051 55.77584 L 346.06051 12.53718 L 322.92926 -23.78981 L 319.31853 -29.46036 L 316.27555 -34.23927" />
    <path d="M -55.35787 -59.72717 L -319.31853 -474.27009 L -318.87854 -477.79422 L 25.79966 -494.63876 L 25.35967 -491.11463 L 23.19667 -494.51155" />
    <path d="M 1.38232 29.38172 L 346.06051 12.53718" />
    <path d="M 257.23834 -126.95559 L 25.35967 -491.11463" />
    <path d="M -276.68777 -364.081 A 100 68.09573 348.14485 0 0 -327.06907 -304.39648 L -367.86103 22.32923 L -420.79375 24.91607 L -358.79692 -471.65135 A 100 68.09573 168.14485 0 1 -251.63137 -546.03569 L -25.12856 -557.10496 A 100 68.09573 168.14485 0 1 64.05238 -508.07717" />
    <path d="M -420.79375 24.91607 L -423.5018 12.01542" />
    <path d="M 1.38232 72.62039 L 1.38232 29.38172" />
    <path d="M -23.09161 -21.91675 L -21.74893 -6.94527" />
    <path d="M -323.83194 -438.11961 L -64.25554 -30.46205" />
    <path d="M -319.31853 -474.27009 L -323.83194 -438.11961" />
    <path d="M 319.31853 -29.46036 L 318.87854 -34.36648 L -22.71101 -17.67288" />
    <path d="M 318.87854 -34.36648 L 321.58659 -38.7613 L -23.09161 -21.91675" />
    <path d="M 322.92926 -23.78981 L 321.58659 -38.7613" />
    <path d="M 12.18078 219.73831 A 100 95.79944 31.64102 0 1 25.52511 162.46603 A 100 95.79944 31.64102 0 1 101.9742 118.0715 L 222.61157 112.17591 A 100 95.79944 31.64102 0 1 329.77712 204.21727 L 370.56908 659.06826 L 423.5018 656.48142 L 361.50497 -34.81461 A 100 95.79944 211.64102 0 0 254.33942 -126.85596 L 27.83661 -115.78669 A 100 95.79944 211.64102 0 0 -48.61248 -71.39216 L -51.32053 -66.99735 A 100 95.79944 211.64102 0 0 -64.66486 -9.72506 L -61.95681 -14.11988 L 0.04002 677.17615 L 52.97274 674.5893 L 12.18078 219.73831 Z" />
    <path d="M -48.61248 -71.39216 A 100 95.79944 211.64102 0 0 -61.95681 -14.11988" />
    <path d="M 24.20199 164.68248 A 100 95.79944 31.64102 0 1 99.26615 122.46632 L 101.9742 118.0715" />
    <path d="M 99.26615 122.46632 L 219.90352 116.57073 L 222.61157 112.17591" />
    <path d="M 219.90352 116.57073 A 100 95.79944 31.64102 0 1 327.06907 208.61208 L 329.77712 204.21727" />
    <path d="M 327.06907 208.61208 L 367.86103 663.46308 L 370.56908 659.06826" />
    <path d="M 367.86103 663.46308 L 420.79375 660.87624 L 423.5018 656.48142" />
    <path d="M -64.66486 -9.72506 L -2.66803 681.57096 L 0.04002 677.17615" />
    <path d="M -2.66803 681.57096 L 50.2647 678.98412 L 52.97274 674.5893" />
    <path d="M -25.12856 -557.10496 L -27.83661 -570.00561" />
    <path d="M -251.63137 -546.03569 L -254.33942 -558.93634" />
    <path d="M -358.79692 -471.65135 L -361.50497 -484.55199" />
</svg>