<svg version="1.1" xmlns="http://www.w3.org/2000/svg" viewBox="-424.1577799469025 -500.9448319759564 848.3155598938049 1084.5374602741012" fill="none" stroke="black" stroke-width="0.6%" vector-effect="non-scaling-stroke">
    <path d="M -350.39311 -453.0989 L -350.39311 -470.83649" />
    <path d="M -342.58876 -460.36661 L -350.39311 -470.83649" />
    <path d="M -423.15778 9.85083 L -370.81331 -413.47365 A 100 70.5163 167.42922 0 1 -263.50408 -489.85797 L -37.18514 -499.8149 A 100 70.5163 167.42922 0 1 51.50795 -449.52422 L 54.28572 -437.06736 A 100 70.5163 167.42922 0 1 55.08247 -419.63191 L 53.42995 -406.26753" />
    <path d="M 5.99473 7.27333 L -16.15026 -22.43514 L -6.89103 77.29017 L 5.99473 94.57698 L 350.39311 79.42513 L 350.39311 -7.87852 L 328.24813 -37.58698 L 324.54444 -42.55564 L 319.84586 -48.85899" />
    <path d="M -35.43153 -48.30181 L -324.54444 -436.15936 L -323.94245 -441.02776 L 20.45593 -456.17961 L 19.85395 -451.31121 L 16.35934 -455.99938" />
    <path d="M 5.99473 7.27333 L 350.39311 -7.87852" />
    <path d="M 285.43951 -95.0166 L 19.85395 -451.31121" />
    <path d="M -325.98673 -471.91025 L -350.39311 -470.83649" />
    <path d="M -295.02947 -309.2601 A 100 70.5163 347.42922 0 0 -333.52204 -254.72976 L -367.49026 19.9808 L -420.38001 22.30769 L -368.03555 -401.01678 A 100 70.5163 167.42922 0 1 -260.72631 -477.40111 L -34.40737 -487.35804 A 100 70.5163 167.42922 0 1 54.28572 -437.06736" />
    <path d="M -420.38001 22.30769 L -423.15778 9.85083" />
    <path d="M 5.99473 94.57698 L 5.99473 7.27333" />
    <path d="M -17.67816 -38.89124 L -16.15026 -22.43514" />
    <path d="M -333.80366 -361.27737 L -324.54444 -436.15936" />
    <path d="M -333.80366 -361.27737 L -55.46411 12.12727" />
    <path d="M 324.54444 -42.55564 L 323.94245 -49.03922 L -17.22676 -34.02944" />
    <path d="M 323.94245 -49.03922 L 326.72022 -54.04309 L -17.67816 -38.89124" />
    <path d="M 328.24813 -37.58698 L 326.72022 -54.04309" />
    <path d="M -333.96586 -359.96563 L -333.80366 -361.27737" />
    <path d="M -332.86208 -360.01419 L -333.96586 -359.96563" />
    <path d="M 18.9613 209.41162 A 100 94.81062 29.03572 0 1 29.92911 156.54705 A 100 94.81062 29.03572 0 1 108.45114 109.12181 L 228.99058 103.81866 A 100 94.81062 29.03572 0 1 336.29981 195.45028 L 370.26803 561.30053 L 423.15778 558.97364 L 370.81331 -4.7956 A 100 94.81062 209.03572 0 0 263.50408 -96.42722 L 37.18514 -86.47029 A 100 94.81062 209.03572 0 0 -41.3369 -39.04504 L -44.11466 -34.04118 A 100 94.81062 209.03572 0 0 -55.08247 18.8234 L -52.3047 13.81953 L 0.03976 577.58876 L 52.92951 575.26187 L 18.9613 209.41162 Z" />
    <path d="M -41.3369 -39.04504 A 100 94.81062 209.03572 0 0 -52.3047 13.81953" />
    <path d="M 28.58005 159.0711 A 100 94.81062 29.03572 0 1 105.67337 114.12567 L 108.45114 109.12181" />
    <path d="M 105.67337 114.12567 L 226.21281 108.82253 L 228.99058 103.81866" />
    <path d="M 226.21281 108.82253 A 100 94.81062 29.03572 0 1 333.52204 200.45415 L 336.29981 195.45028" />
    <path d="M 333.52204 200.45415 L 367.49026 566.30439 L 370.26803 561.30053" />
    <path d="M 367.49026 566.30439 L 420.38001 563.9775 L 423.15778 558.97364" />
    <path d="M -55.08247 18.8234 L -2.73801 582.59263 L 0.03976 577.58876" />
    <path d="M -2.73801 582.59263 L 50.15175 580.26574 L 52.92951 575.26187" />
    <path d="M -34.40737 -487.35804 L -37.18514 -499.8149" />
    <path d="M -260.72631 -477.40111 L -263.50408 -489.85797" />
    <path d="M -368.03555 -401.01678 L -370.81331 -413.47365" />
</svg>