<svg version="1.1" xmlns="http://www.w3.org/2000/svg" viewBox="-424.5125614809713 -573.3639235084014 849.0251229619425 1259.1154991518922" fill="none" stroke="black" stroke-width="0.6%" vector-effect="non-scaling-stroke">
    <path d="M -423.51256 12.0808 L -361.20987 -486.77423 A 100 68.01838 168.16644 0 1 -254.04891 -561.09374 L -27.54035 -572.19646 A 100 68.01838 168.16644 0 1 61.65542 -523.21115 L 64.36126 -510.29683 A 100 68.01838 168.16644 0 1 64.96849 -494.61716 L 58.31405 -441.33526" />
    <path d="M 1.23615 29.35918 L -21.9997 -7.30311 L -17.48997 43.03732 L 1.23615 72.58401 L 345.92309 55.68856 L 345.92309 12.46373 L 322.68724 -24.19856 L 319.07946 -29.89104 L 316.04087 -34.68543" />
    <path d="M -55.74597 -60.54908 L -319.07946 -476.0453 L -318.63855 -479.57565 L 26.0484 -496.4711 L 25.60749 -492.94075 L 23.45071 -496.34377" />
    <path d="M 1.23615 29.35918 L 345.92309 12.46373" />
    <path d="M 256.90317 -127.99483 L 25.60749 -492.94075" />
    <path d="M -276.46742 -365.5858 A 100 68.01838 348.16644 0 0 -326.86447 -305.95038 L -367.87266 22.40047 L -420.80672 24.99512 L -358.50404 -473.8599 A 100 68.01838 168.16644 0 1 -251.34307 -548.17941 L -24.83451 -559.28213 A 100 68.01838 168.16644 0 1 64.36126 -510.29683" />
    <path d="M -420.80672 24.99512 L -423.51256 12.0808" />
    <path d="M 1.23615 72.58401 L 1.23615 29.35918" />
    <path d="M -23.34256 -22.29292 L -21.9997 -7.30311" />
    <path d="M -323.58919 -439.93607 L -64.58184 -31.26578" />
    <path d="M -319.07946 -476.0453 L -323.58919 -439.93607" />
    <path d="M 319.07946 -29.89104 L 318.63855 -34.81276 L -22.96411 -18.06849" />
    <path d="M 318.63855 -34.81276 L 321.34439 -39.18837 L -23.34256 -22.29292" />
    <path d="M 322.68724 -24.19856 L 321.34439 -39.18837" />
    <path d="M 11.96591 220.02235 A 100 95.82851 31.73231 0 1 25.39643 162.59994 A 100 95.82851 31.73231 0 1 101.76891 118.31487 L 222.40934 112.40146 A 100 95.82851 31.73231 0 1 329.57031 204.4544 L 370.57849 662.21336 L 423.51256 659.6187 L 361.20987 -35.84276 A 100 95.82851 211.73231 0 0 254.04891 -127.8957 L 27.54035 -116.79297 A 100 95.82851 211.73231 0 0 -48.83214 -72.5079 L -51.53798 -68.1323 A 100 95.82851 211.73231 0 0 -64.96849 -10.70989 L -62.26266 -15.0855 L 0.04003 680.37597 L 52.9741 677.78131 L 11.96591 220.02235 Z" />
    <path d="M -48.83214 -72.5079 A 100 95.82851 211.73231 0 0 -62.26266 -15.0855" />
    <path d="M 24.07416 164.8067 A 100 95.82851 31.73231 0 1 99.06307 122.69048 L 101.76891 118.31487" />
    <path d="M 99.06307 122.69048 L 219.7035 116.77707 L 222.40934 112.40146" />
    <path d="M 219.7035 116.77707 A 100 95.82851 31.73231 0 1 326.86447 208.83 L 329.57031 204.4544" />
    <path d="M 326.86447 208.83 L 367.87266 666.58897 L 370.57849 662.21336" />
    <path d="M 367.87266 666.58897 L 420.80672 663.99431 L 423.51256 659.6187" />
    <path d="M -64.96849 -10.70989 L -2.66581 684.75157 L 0.04003 680.37597" />
    <path d="M -2.66581 684.75157 L 50.26826 682.15692 L 52.9741 677.78131" />
    <path d="M -24.83451 -559.28213 L -27.54035 -572.19646" />
    <path d="M -251.34307 -548.17941 L -254.04891 -561.09374" />
    <path d="M -358.50404 -473.8599 L -361.20987 -486.77423" />
</svg>