<svg version="1.1" xmlns="http://www.w3.org/2000/svg" viewBox="-424.1577799469025 -500.9448319759564 848.3155598938049 1084.5374602741012" fill="none" stroke="black" stroke-width="0.6%" vector-effect="non-scaling-stroke">
    <path d="M -423.15778 9.85083 L -370.81331 -413.47365 A 100 70.5163 167.42922 0 1 -263.50408 -489.85797 L -37.18514 -499.8149 A 100 70.5163 167.42922 0 1 51.50795 -449.52422 L 54.28572 -437.06736 A 100 70.5163 167.42922 0 1 55.08247 -419.63191 L 51.11515 -387.54704" />
    <path d="M 5.99473 29.09924 L -13.83545 2.49619 L -9.20584 52.35884 L 5.99473 72.75106 L 350.39311 57.59922 L 350.39311 13.94739 L 330.56294 -12.65565 L 326.85924 -17.62432 L 323.65181 -21.92724" />
    <path d="M -42.8154 -36.38167 L -326.85924 -417.43886 L -326.44831 -420.76223 L 17.95008 -435.91408 L 17.53914 -432.59071 L 15.15358 -435.79104" />
    <path d="M 5.99473 29.09924 L 350.39311 13.94739" />
    <path d="M 268.04606 -96.52477 L 17.53914 -432.59071" />
    <path d="M -283.70341 -315.8916 A 100 70.5163 347.42922 0 0 -333.52204 -254.72976 L -367.49026 19.9808 L -420.38001 22.30769 L -368.03555 -401.01678 A 100 70.5163 167.42922 0 1 -260.72631 -477.40111 L -34.40737 -487.35804 A 100 70.5163 167.42922 0 1 54.28572 -437.06736" />
    <path d="M -420.38001 22.30769 L -423.15778 9.85083" />
    <path d="M 5.99473 72.75106 L 5.99473 29.09924" />
    <path d="M -15.17231 -11.90229 L -13.83545 2.49619" />
    <path d="M -331.48886 -379.99787 L -53.79295 -7.45671" />
    <path d="M -326.85924 -417.43886 L -331.48886 -379.99787" />
    <path d="M 326.85924 -17.62432 L 326.44831 -22.05027 L -14.72091 -7.04049" />
    <path d="M 326.44831 -22.05027 L 329.22607 -27.05414 L -15.17231 -11.90229" />
    <path d="M 330.56294 -12.65565 L 329.22607 -27.05414" />
    <path d="M 18.9613 209.41162 A 100 94.81062 29.03572 0 1 29.92911 156.54705 A 100 94.81062 29.03572 0 1 108.45114 109.12181 L 228.99058 103.81866 A 100 94.81062 29.03572 0 1 336.29981 195.45028 L 370.26803 561.30053 L 423.15778 558.97364 L 370.81331 -4.7956 A 100 94.81062 209.03572 0 0 263.50408 -96.42722 L 37.18514 -86.47029 A 100 94.81062 209.03572 0 0 -41.3369 -39.04504 L -44.11466 -34.04118 A 100 94.81062 209.03572 0 0 -55.08247 18.8234 L -52.3047 13.81953 L 0.03976 577.58876 L 52.92951 575.26187 L 18.9613 209.41162 Z" />
    <path d="M -41.3369 -39.04504 A 100 94.81062 209.03572 0 0 -52.3047 13.81953" />
    <path d="M 28.58005 159.0711 A 100 94.81062 29.03572 0 1 105.67337 114.12567 L 108.45114 109.12181" />
    <path d="M 105.67337 114.12567 L 226.21281 108.82253 L 228.99058 103.81866" />
    <path d="M 226.21281 108.82253 A 100 94.81062 29.03572 0 1 333.52204 200.45415 L 336.29981 195.45028" />
    <path d="M 333.52204 200.45415 L 367.49026 566.30439 L 370.26803 561.30053" />
    <path d="M 367.49026 566.30439 L 420.38001 563.9775 L 423.15778 558.97364" />
    <path d="M -55.08247 18.8234 L -2.73801 582.59263 L 0.03976 577.58876" />
    <path d="M -2.73801 582.59263 L 50.15175 580.26574 L 52.92951 575.26187" />
    <path d="M -34.40737 -487.35804 L -37.18514 -499.8149" />
    <path d="M -260.72631 -477.40111 L -263.50408 -489.85797" />
    <path d="M -368.03555 -401.01678 L -370.81331 -413.47365" />
</svg>