<svg version="1.1" xmlns="http://www.w3.org/2000/svg" viewBox="-424.1577799469025 -500.9448319759564 848.3155598938049 1084.5374602741012" fill="none" stroke="black" stroke-width="0.6%" vector-effect="non-scaling-stroke">
    <path d="M -330.33145 -389.35812 L -51.79005 -15.68269" />
    <path d="M -39.28287 -42.55559 L -325.70184 -426.79911 L -325.61302 -427.51741 L 18.78536 -442.66925 L 18.69655 -441.95096 L 18.18094 -442.64266" />
    <path d="M -330.33145 -389.35812 L -325.70184 -426.79911" />
    <path d="M 28.58005 159.0711 A 100 94.81062 29.03572 0 1 105.67337 114.12567 L 226.21281 108.82253 A 100 94.81062 29.03572 0 1 333.52204 200.45415 L 367.49026 566.30439 L 420.38001 563.9775 L 423.15778 558.97364 L 370.81331 -4.7956 A 100 94.81062 209.03572 0 0 263.50408 -96.42722 L 37.18514 -86.47029 A 100 94.81062 209.03572 0 0 -41.3369 -39.04504 L -44.11466 -34.04118 A 100 94.81062 209.03572 0 0 -55.08247 18.8234 L -2.73801 582.59263 L 50.15175 580.26574 L 52.92951 575.26187 L 18.9613 209.41162 A 100 94.81062 29.03572 0 1 29.92911 156.54705 A 100 94.81062 29.03572 0 1 108.45114 109.12181 L 228.99058 103.81866 A 100 94.81062 29.03572 0 1 336.29981 195.45028 L 370.26803 561.30053 L 423.15778 558.97364" />
    <path d="M 325.61302 -31.04659 L -15.55619 -16.03681" />
    <path d="M 325.70184 -30.08998 L 325.61302 -31.04659 L 328.39079 -36.05045 L -16.0076 -20.89861 L -14.99285 -9.96947 L -10.36324 39.89318 L 5.99473 61.83811 L 350.39311 46.68626 L 350.39311 3.03444 L 329.40553 -25.12132 L 325.70184 -30.08998 L 325.0086 -31.01999" />
    <path d="M 5.99473 18.18628 L -14.99285 -9.96947" />
    <path d="M -347.47146 -456.00401 L -350.39311 -459.92353" />
    <path d="M 5.99473 18.18628 L 350.39311 3.03444" />
    <path d="M 276.44549 -96.16953 L 18.69655 -441.95096" />
    <path d="M -342.71411 -460.26137 L -350.39311 -459.92353" />
    <path d="M -277.73017 -318.79121 A 100 70.5163 347.42922 0 0 -333.52204 -254.72976 L -367.49026 19.9808 L -420.38001 22.30769 L -423.15778 9.85083 L -370.81331 -413.47365 A 100 70.5163 167.42922 0 1 -263.50408 -489.85797 L -37.18514 -499.8149 A 100 70.5163 167.42922 0 1 51.50795 -449.52422 L 54.28572 -437.06736 A 100 70.5163 167.42922 0 1 55.08247 -419.63191 L 52.27255 -396.90728" />
    <path d="M -420.38001 22.30769 L -368.03555 -401.01678 L -370.81331 -413.47365" />
    <path d="M -368.03555 -401.01678 A 100 70.5163 167.42922 0 1 -260.72631 -477.40111 L -263.50408 -489.85797" />
    <path d="M -260.72631 -477.40111 L -34.40737 -487.35804 L -37.18514 -499.8149" />
    <path d="M -34.40737 -487.35804 A 100 70.5163 167.42922 0 1 54.28572 -437.06736" />
    <path d="M -330.62473 -386.98634 L -330.33145 -389.35812" />
    <path d="M -328.62896 -387.07415 L -330.62473 -386.98634" />
    <path d="M 367.49026 566.30439 L 370.26803 561.30053" />
    <path d="M -41.3369 -39.04504 A 100 94.81062 209.03572 0 0 -52.3047 13.81953 L 0.03976 577.58876 L 52.92951 575.26187" />
    <path d="M -2.73801 582.59263 L 0.03976 577.58876" />
    <path d="M 329.40553 -25.12132 L 328.39079 -36.05045" />
    <path d="M 5.99473 61.83811 L 5.99473 18.18628" />
    <path d="M -350.39311 -453.0989 L -350.39311 -459.92353" />
    <path d="M 105.67337 114.12567 L 108.45114 109.12181" />
    <path d="M 226.21281 108.82253 L 228.99058 103.81866" />
    <path d="M 333.52204 200.45415 L 336.29981 195.45028" />
    <path d="M -55.08247 18.8234 L -52.3047 13.81953" />
</svg>