<svg version="1.1" xmlns="http://www.w3.org/2000/svg" viewBox="-443.16856493929885 -502.1538663748398 886.3371298785978 1085.8085373640001" fill="none" stroke="black" stroke-width="0.6%" vector-effect="non-scaling-stroke">
    <path d="M -358.13763 -469.82902 L -358.02608 -469.68622" />
    <path d="M -358.13763 -469.60804 L -358.13763 -469.82902" />
    <path d="M 14.25835 50.53698 L 358.13763 34.72706 L 358.13763 -8.92866 L 334.99794 -38.55016" />
    <path d="M -4.04378 27.10812 L 14.25835 50.53698 L 14.25835 6.88126 L 358.13763 -8.92866" />
    <path d="M -335.96546 -397.79033 L -54.97581 -38.09082" />
    <path d="M -9.72091 -501.04784 A 75 52.81225 166.87339 0 1 56.33696 -464.00733 L 59.2395 -451.5606 A 75 52.81225 166.87339 0 1 59.88762 -437.91567 L 54.65817 -397.41776" />
    <path d="M -304.47459 -487.49648 L -9.72091 -501.04784" />
    <path d="M -442.16856 11.56308 L -385.14543 -430.03536 A 75 52.81225 166.87339 0 1 -304.47459 -487.49648" />
    <path d="M -357.79897 -469.84459 L -358.13763 -469.82902" />
    <path d="M -280.70961 -327.0564 A 75 52.81225 346.87339 0 0 -346.17824 -271.42799 L -383.99971 21.46893 L -439.26602 24.00981 L -382.24289 -417.58863 A 75 52.81225 166.87339 0 1 -301.57205 -475.04975 L -6.81837 -488.60111 A 75 52.81225 166.87339 0 1 59.2395 -451.5606" />
    <path d="M -335.96546 -397.79033 L -331.12789 -435.2534 L -39.84311 -62.37492" />
    <path d="M 12.75139 -451.06331 L -331.12789 -435.2534" />
    <path d="M 288.47468 -98.10537 L 12.75139 -451.06331" />
    <path d="M 24.8604 146.95469 A 75 71.00708 30.05829 0 1 81.28636 115.04733 L 84.18889 110.03178 L 268.40994 101.56218 A 75 71.00708 30.05829 0 1 349.08078 170.12426 L 386.90225 559.85296 L 442.16856 557.31208 L 385.14543 -30.27889 A 75 71.00708 210.05829 0 0 304.47459 -98.84096 L 9.72091 -85.28961 A 75 71.00708 210.05829 0 0 -48.21038 -50.90576 L -51.11292 -45.8902 A 75 71.00708 210.05829 0 0 -59.88762 -4.9363 L -56.98508 -9.95185 L 0.03805 577.63912 L 55.30437 575.09824 L 17.4829 185.36953 A 75 71.00708 30.05829 0 1 26.2576 144.41563 A 75 71.00708 30.05829 0 1 84.18889 110.03178" />
    <path d="M 81.28636 115.04733 L 265.5074 106.57773 L 268.40994 101.56218" />
    <path d="M -2.86449 582.65467 L 52.40183 580.11379 L 55.30437 575.09824" />
    <path d="M 265.5074 106.57773 A 75 71.00708 30.05829 0 1 346.17824 175.13981 L 349.08078 170.12426" />
    <path d="M -59.88762 -4.9363 L -2.86449 582.65467 L 0.03805 577.63912" />
    <path d="M 346.17824 175.13981 L 383.99971 564.86851 L 386.90225 559.85296" />
    <path d="M 383.99971 564.86851 L 439.26602 562.32763 L 442.16856 557.31208" />
    <path d="M -48.21038 -50.90576 A 75 71.00708 210.05829 0 0 -56.98508 -9.95185" />
    <path d="M -8.88134 -22.74024 L 334.99794 -38.55016" />
    <path d="M -8.88134 -22.74024 L -4.04378 27.10812" />
    <path d="M -8.88134 -22.74024 L 14.25835 6.88126" />
    <path d="M -439.26602 24.00981 L -442.16856 11.56308" />
    <path d="M -6.81837 -488.60111 L -9.72091 -501.04784" />
    <path d="M -301.57205 -475.04975 L -304.47459 -487.49648" />
    <path d="M -382.24289 -417.58863 L -385.14543 -430.03536" />
</svg>