<svg version="1.1" xmlns="http://www.w3.org/2000/svg" viewBox="-424.47494323532067 -573.3473037057499 848.9498864706413 1259.0725861133953" fill="none" stroke="black" stroke-width="0.6%" vector-effect="non-scaling-stroke">
    <path d="M -423.47494 12.10668 L -361.18368 -486.7603 A 100 68.0206 168.16831 0 1 -254.02374 -561.08018 L -27.51389 -572.17994 A 100 68.0206 168.16831 0 1 61.68413 -523.18978 L 64.38947 -510.27573 A 100 68.0206 168.16831 0 1 64.99661 -494.59795 L 58.34276 -441.30986" />
    <path d="M 1.20335 29.33358 L -22.02824 -7.32582 L -17.51934 43.01435 L 1.20335 72.55872 L 345.89225 55.66779 L 345.89225 12.44266 L 322.66066 -24.21675 L 319.05354 -29.90878 L 316.01525 -34.70319" />
    <path d="M -55.77213 -60.5736 L -319.05354 -476.03113 L -318.61271 -479.56157 L 26.0762 -496.4525 L 25.63537 -492.92206 L 23.47874 -496.32521" />
    <path d="M 1.20335 29.33358 L 345.89225 12.44266" />
    <path d="M 256.88328 -128.01333 L 25.63537 -492.92206" />
    <path d="M -276.44268 -365.56615 A 100 68.0206 348.16831 0 0 -326.83456 -305.93194 L -367.83523 22.42677 L -420.7696 25.02073 L -358.47834 -473.84625 A 100 68.0206 168.16831 0 1 -251.3184 -548.16613 L -24.80855 -559.26588 A 100 68.0206 168.16831 0 1 64.38947 -510.27573" />
    <path d="M -420.7696 25.02073 L -423.47494 12.10668" />
    <path d="M 1.20335 72.55872 L 1.20335 29.33358" />
    <path d="M -23.37085 -22.31555 L -22.02824 -7.32582" />
    <path d="M -323.56244 -439.92104 L -64.60901 -31.29305" />
    <path d="M -319.05354 -476.03113 L -323.56244 -439.92104" />
    <path d="M 319.05354 -29.90878 L 318.61271 -34.83048 L -22.99244 -18.09067" />
    <path d="M 318.61271 -34.83048 L 321.31805 -39.20648 L -23.37085 -22.31555" />
    <path d="M 322.66066 -24.21675 L 321.31805 -39.20648" />
    <path d="M 11.9337 219.99866 A 100 95.82838 31.72528 0 1 25.35833 162.58798 A 100 95.82838 31.72528 0 1 101.73885 118.29297 L 222.37997 112.38114 A 100 95.82838 31.72528 0 1 329.53991 204.43488 L 370.54057 662.19153 L 423.47494 659.59757 L 361.18368 -35.86039 A 100 95.82838 211.72528 0 0 254.02374 -127.91412 L 27.51389 -116.81437 A 100 95.82838 211.72528 0 0 -48.86663 -72.51936 L -51.57198 -68.14336 A 100 95.82838 211.72528 0 0 -64.99661 -10.73267 L -62.29126 -15.10868 L 0 680.34928 L 52.93437 677.75532 L 11.9337 219.99866 Z" />
    <path d="M -48.86663 -72.51936 A 100 95.82838 211.72528 0 0 -62.29126 -15.10868" />
    <path d="M 24.03631 164.79493 A 100 95.82838 31.72528 0 1 99.03351 122.66897 L 101.73885 118.29297" />
    <path d="M 99.03351 122.66897 L 219.67463 116.75714 L 222.37997 112.38114" />
    <path d="M 219.67463 116.75714 A 100 95.82838 31.72528 0 1 326.83456 208.81088 L 329.53991 204.43488" />
    <path d="M 326.83456 208.81088 L 367.83523 666.56754 L 370.54057 662.19153" />
    <path d="M 367.83523 666.56754 L 420.7696 663.97357 L 423.47494 659.59757" />
    <path d="M -64.99661 -10.73267 L -2.70534 684.72528 L 0 680.34928" />
    <path d="M -2.70534 684.72528 L 50.22903 682.13132 L 52.93437 677.75532" />
    <path d="M -24.80855 -559.26588 L -27.51389 -572.17994" />
    <path d="M -251.3184 -548.16613 L -254.02374 -561.08018" />
    <path d="M -358.47834 -473.84625 L -361.18368 -486.7603" />
</svg>